HIERARCHY
ROOT Hips
{
	OFFSET -3.958830 18.904000 13.208200
	CHANNELS 6 Xposition Yposition Zposition Zrotation Yrotation Xrotation 
	JOINT LHipJoint
	{
		OFFSET 0.000000 0.000000 0.000000
		CHANNELS 3 Zrotation Yrotation Xrotation
		JOINT LeftUpLeg
		{
			OFFSET 1.800000 -1.400000 0.085000
			CHANNELS 3 Zrotation Yrotation Xrotation
			JOINT LeftLeg
			{
				OFFSET 2.215000 -6.000000 0.000000
				CHANNELS 3 Zrotation Yrotation Xrotation
				JOINT LeftFoot
				{
					OFFSET 2.500000 -6.900000 0.000000
					CHANNELS 3 Zrotation Yrotation Xrotation
					JOINT LeftToeBase
					{
						OFFSET 0.200000 -0.500000 1.950000
						CHANNELS 3 Zrotation Yrotation Xrotation
						End Site
						{
							OFFSET 0.000000 0.000000 0.000000
						}
					}
				}
			}
		}
	}
	JOINT RHipJoint
	{
		OFFSET 0.000000 0.000000 0.000000
		CHANNELS 3 Zrotation Yrotation Xrotation
		JOINT RightUpLeg
		{
			OFFSET -1.800000 -1.400000 0.085000
			CHANNELS 3 Zrotation Yrotation Xrotation
			JOINT RightLeg
			{
				OFFSET -2.215000 -6.000000 0.000000
				CHANNELS 3 Zrotation Yrotation Xrotation
				JOINT RightFoot
				{
					OFFSET -2.500000 -6.900000 0.000000
					CHANNELS 3 Zrotation Yrotation Xrotation
					JOINT RightToeBase
					{
						OFFSET -0.200000 -0.500000 1.950000
						CHANNELS 3 Zrotation Yrotation Xrotation
						End Site
						{
							OFFSET 0.000000 0.000000 0.000000
						}
					}
				}
			}
		}
	}
	JOINT LowerBack
	{
		OFFSET 0.000000 0.000000 0.000000
		CHANNELS 3 Zrotation Yrotation Xrotation
		JOINT Spine
		{
			OFFSET -0.087000 1.940000 -0.288900
			CHANNELS 3 Zrotation Yrotation Xrotation
			JOINT Spine1
			{
				OFFSET 0.000000 1.950000 0.060000
				CHANNELS 3 Zrotation Yrotation Xrotation
				JOINT Neck
				{
					OFFSET 0.000000 0.000000 0.000000
					CHANNELS 3 Zrotation Yrotation Xrotation
					JOINT Neck1
					{
						OFFSET 0.000000 1.600000 0.340000
						CHANNELS 3 Zrotation Yrotation Xrotation
						JOINT Head
						{
							OFFSET 0.000000 1.667000 -0.240000
							CHANNELS 3 Zrotation Yrotation Xrotation
							End Site
							{
								OFFSET 0.000000 0.000000 0.000000
							}
						}
					}
				}
				JOINT LeftShoulder
				{
					OFFSET 0.000000 0.000000 0.000000
					CHANNELS 3 Zrotation Yrotation Xrotation
					JOINT LeftArm
					{
						OFFSET 2.700000 1.550000 -0.730000
						CHANNELS 3 Zrotation Yrotation Xrotation
						JOINT LeftForeArm
						{
							OFFSET 5.450000 0.000000 0.000000
							CHANNELS 3 Zrotation Yrotation Xrotation
							JOINT LeftHand
							{
								OFFSET 3.450000 0.000000 0.000000
								CHANNELS 3 Zrotation Yrotation Xrotation
								JOINT LeftHandIndex1
								{
									OFFSET 0.750000 0.000000 0.000000
									CHANNELS 3 Zrotation Yrotation Xrotation
									End Site
									{
										OFFSET 0.000000 0.000000 0.000000
									}
								}
							}
						}
					}
				}
				JOINT RightShoulder
				{
					OFFSET 0.000000 0.000000 0.000000
					CHANNELS 3 Zrotation Yrotation Xrotation
					JOINT RightArm
					{
						OFFSET -2.700000 1.550000 -0.730000
						CHANNELS 3 Zrotation Yrotation Xrotation
						JOINT RightForeArm
						{
							OFFSET -5.450000 0.000000 0.000000
							CHANNELS 3 Zrotation Yrotation Xrotation
							JOINT RightHand
							{
								OFFSET -3.450000 0.000000 0.000000
								CHANNELS 3 Zrotation Yrotation Xrotation
								JOINT RightHandIndex1
								{
									OFFSET -0.750000 0.000000 0.000000
									CHANNELS 3 Zrotation Yrotation Xrotation
									End Site
									{
										OFFSET 0.000000 0.000000 0.000000
									}
								}
							}
						}
					}
				}
			}
		}
	}
}
MOTION
Frames: 8
Frame Time: 0.016667
-0.417870 17.622470 -3.175710 -14.956895 40.449286 -2.441121 -15.159562 12.403040 2.571522 9.570901 -2.848594 -19.852046 -6.010288 4.545463 9.460795 -0.730196 3.625615 3.557870 0.303380 -0.090680 0.157380 18.485445 -9.187488 4.754742 -10.770835 8.147419 -49.288795 11.811512 -6.305222 22.757943 0.061526 -3.252232 3.276550 0.073190 0.572350 0.075730 -4.882545 -1.750847 -8.394097 23.169636 -8.825610 19.242236 -2.174628 -4.731512 9.196028 -1.578011 -7.308566 -11.825579 -16.800239 -8.522980 34.486782 2.332980 -17.137760 -8.139810 2.323649 -25.392323 2.616634 1.000816 -31.757215 2.464048 12.776636 -5.351662 -1.520652 -3.960068 2.565871 0.428170 0.149740 -0.240320 0.314040 0.737110 29.563038 6.810244 1.157756 25.944289 -7.659217 -33.228209 17.551515 -6.903656 2.238305 -1.453271 -0.364880 0.489370 -0.003420 0.006680 
-0.443260 17.649120 -3.183180 -15.661823 41.044042 -3.395236 -15.150328 12.306016 2.499911 9.710506 -2.788564 -19.999910 -5.970733 4.621671 10.061495 -0.784024 3.664466 3.523459 0.370200 -0.015640 0.190650 18.520853 -9.201595 4.794059 -9.555131 8.853774 -49.621191 12.020406 -7.104664 26.226737 -0.032808 -3.720189 3.082166 0.140680 0.564350 0.087040 -5.000259 -1.539344 -8.376238 23.965785 -9.302478 19.494458 -2.958780 -5.011453 9.922931 -1.710695 -6.567878 -11.126479 -15.405170 -8.294783 34.759711 3.359370 -16.832880 -9.429190 2.871540 -26.523273 1.810215 1.156563 -33.827228 2.253836 14.096067 -3.504350 -1.773078 -4.008995 2.594548 0.436920 0.146240 -0.231130 0.324080 0.356951 29.788540 6.259855 2.215073 27.518612 -7.799373 -35.000472 18.454250 -7.832238 2.190907 -1.493565 -0.363570 0.499780 -0.016100 -0.001500 
-0.514590 17.706980 -3.205440 -15.894055 43.553523 -5.205212 -15.195606 12.282608 2.356807 9.161646 -2.725582 -20.007159 -5.644278 4.914764 12.586636 -0.810502 3.736419 3.449895 0.492100 0.149860 0.242100 18.518007 -9.159685 4.918499 -7.557617 9.847317 -51.085896 9.596221 -8.588523 35.551653 -0.298116 -4.978245 2.600512 0.240870 0.513520 0.114770 -5.093023 -1.508152 -8.400576 23.818854 -10.334331 21.263124 -3.771516 -5.780436 10.896374 -1.825958 -5.906194 -10.359492 -14.474203 -8.155411 35.580196 4.055200 -16.583330 -11.534680 3.771475 -29.167296 0.305702 0.616238 -36.855147 1.681587 16.024869 -3.853252 -2.262679 -3.991479 2.692555 0.434580 0.122510 -0.180690 0.345970 -0.339203 31.472208 5.729507 3.277318 29.486937 -8.616971 -38.025001 21.821927 -9.892327 2.109115 -1.542982 -0.310310 0.488460 -0.059840 0.007760 
-0.582650 17.732750 -3.218630 -16.928720 48.016403 -7.221961 -15.281305 12.128972 2.221142 8.545286 -2.948945 -20.952068 -5.263295 5.201731 15.509551 -0.902473 3.918480 3.361146 0.606210 0.286870 0.274750 18.510308 -9.037494 5.020875 -6.171771 10.460132 -52.785691 8.193741 -10.800428 45.308958 -0.662489 -6.766901 1.977960 0.368610 0.528920 0.129290 -5.247425 -1.433460 -8.443811 24.048267 -11.219440 21.617211 -3.980520 -6.701644 12.522984 -2.357521 -4.493841 -9.330229 -12.164072 -8.688711 35.890175 4.555970 -16.661270 -12.410480 6.045290 -31.278150 -1.855252 -3.086858 -40.824762 2.206152 19.561782 -6.570286 -3.377679 -3.967459 2.807185 0.431320 0.144520 -0.185300 0.387380 -1.542587 31.879261 5.891965 7.033174 29.914398 -9.824395 -44.907784 27.299496 -14.353481 1.921565 -1.600237 -0.316420 0.524940 -0.082590 0.004510 
-0.639170 17.726320 -3.182830 -16.952470 50.335759 -8.942019 -15.365504 12.217277 2.082525 8.337649 -2.649357 -19.731974 -4.912907 5.448296 16.928647 -0.847680 4.019446 3.270153 0.673330 0.386340 0.303170 18.445816 -8.885858 5.191141 -3.913144 12.069193 -52.999532 6.006927 -12.133483 54.719082 -1.074009 -8.347563 1.463894 0.394310 0.468830 0.154920 -5.187949 -1.701427 -8.595456 22.519159 -10.516463 23.310786 -2.991374 -6.310886 13.688402 -2.349008 -3.707449 -9.207127 -11.730665 -8.907295 38.287343 6.987560 -17.289040 -14.781850 5.398196 -33.624654 -2.612682 -10.783505 -44.992300 2.468683 27.200035 -13.083357 -6.393341 -3.827941 2.901395 0.437130 0.093120 -0.123540 0.374670 -0.833230 33.583722 6.947365 10.479984 29.025849 -11.893883 -52.769807 36.129630 -21.065090 1.795755 -1.463036 -0.239690 0.496950 -0.097700 0.025190 
-0.651170 17.673870 -3.140280 -18.121282 51.132628 -9.554226 -15.375338 11.980104 1.795798 8.647092 -2.256451 -19.125935 -3.978390 5.330623 16.865441 -0.945506 4.082027 3.278066 0.649900 0.346230 0.248870 18.531345 -8.626571 5.559785 -2.026998 14.965774 -55.123151 4.621855 -13.784116 64.232473 -1.498819 -10.178091 0.956509 0.419970 0.576210 0.183880 -5.404024 -1.477223 -8.745800 23.816358 -9.684585 21.678209 -3.118133 -5.522998 15.309720 -2.298854 -3.689122 -9.122524 -12.037084 -8.365733 39.786951 6.000700 -17.372870 -13.058590 4.844388 -33.729375 -1.414422 -20.216445 -50.286129 5.954459 33.626667 -17.302707 -9.890079 -3.837426 2.803058 0.426300 0.180780 -0.187600 0.393670 -0.335292 33.528886 6.938796 16.028066 30.718611 -11.549627 -58.979563 44.556955 -28.394595 1.550890 -1.217368 -0.292410 0.549320 -0.037060 0.022730 
-0.674380 17.593370 -3.076200 -18.919909 52.558517 -10.547704 -15.417732 11.851863 1.558978 9.268842 -1.858500 -17.879664 -3.485898 5.320975 16.414400 -0.839143 4.016056 3.315274 0.639450 0.349400 0.270300 18.558242 -8.290688 5.980595 -0.590772 18.251680 -57.243690 3.990345 -16.174525 74.367976 -2.049274 -12.112544 0.471822 0.373690 0.543490 0.183240 -5.531636 -1.450590 -9.005313 24.163663 -9.051022 21.561758 -3.260046 -4.739580 16.180553 -1.563087 -4.289314 -10.336221 -13.691914 -7.181670 42.793468 5.479320 -17.147860 -12.149880 1.913303 -33.904133 1.605371 -27.581398 -52.478076 6.990642 38.093190 -27.294491 -14.275784 -3.639376 2.660969 0.408450 0.159510 -0.146160 0.394740 1.340181 34.331921 7.071957 21.085537 32.903158 -11.032749 -64.581110 51.723814 -35.818813 1.480287 -0.845911 -0.246290 0.527050 -0.072890 0.041770 
-0.679410 17.473630 -3.023370 -20.819467 54.924689 -12.742920 -15.492112 11.658276 1.325253 10.210596 -1.584146 -16.742997 -3.043149 5.208019 15.557042 -0.901577 4.028779 3.332176 0.664530 0.368320 0.298870 18.554505 -8.093109 6.175039 0.378005 20.678368 -58.588252 4.186056 -19.692004 83.103367 -2.569706 -14.011249 0.036348 0.415820 0.553360 0.161780 -5.834405 -1.097345 -9.140346 25.928073 -9.371352 20.604590 -4.684761 -4.671055 17.749570 -0.508148 -4.486536 -10.679992 -13.635836 -6.835885 43.349610 4.169850 -16.875220 -11.891220 -0.957640 -33.946391 3.889291 -34.424131 -53.517372 7.489434 39.147057 -38.510002 -18.268650 -3.500432 2.450191 0.424110 0.177840 -0.163270 0.400750 2.400202 34.438234 6.491220 25.529215 35.956710 -9.969414 -66.964453 58.562732 -41.548578 1.297486 -0.385788 -0.286650 0.568690 -0.079020 0.014580 
